<svg width="10" height="10" xmlns="http://www.w3.org/2000/svg">

 <g>
  <title>background</title>
  <rect fill="none" id="canvas_background" height="12" width="12"/>
 </g>
 <g>
  <title>Layer 1</title>
  <path stroke="null" id="svg_1" fill="black" d="m8.13242,4.299335l-4.137543,0c-0.393781,0 -0.428023,0.318877 -0.428023,0.713371c0,0.394494 0.034242,0.713371 0.428023,0.713371l4.137543,0c0.393781,0 0.428023,-0.318877 0.428023,-0.713371c0,-0.394494 -0.034242,-0.713371 -0.428023,-0.713371l0,0zm1.426742,3.566846l-5.564285,0c-0.393781,0 -0.428023,0.318877 -0.428023,0.713371c0,0.394494 0.034242,0.713371 0.428023,0.713371l5.564285,0c0.393781,0 0.428023,-0.318877 0.428023,-0.713371c0,-0.394494 -0.034242,-0.713371 -0.428023,-0.713371zm-5.564285,-5.706959l5.564285,0c0.393781,0 0.428023,-0.318877 0.428023,-0.713371c0,-0.394494 -0.034242,-0.713371 -0.428023,-0.713371l-5.564285,0c-0.393781,0 -0.428023,0.318877 -0.428023,0.713371c0,0.394494 0.034242,0.713371 0.428023,0.713371zm-2.282787,2.140113l-1.284068,0c-0.393781,0 -0.428023,0.318877 -0.428023,0.713371c0,0.394494 0.034242,0.713371 0.428023,0.713371l1.284068,0c0.393781,0 0.428023,-0.318877 0.428023,-0.713371c0,-0.394494 -0.034242,-0.713371 -0.428023,-0.713371zm0,3.566846l-1.284068,0c-0.393781,0 -0.428023,0.318877 -0.428023,0.713371c0,0.394494 0.034242,0.713371 0.428023,0.713371l1.284068,0c0.393781,0 0.428023,-0.318877 0.428023,-0.713371c0,-0.394494 -0.034242,-0.713371 -0.428023,-0.713371zm0,-7.133701l-1.284068,0c-0.393781,0 -0.428023,0.318877 -0.428023,0.713371c0,0.394494 0.034242,0.713371 0.428023,0.713371l1.284068,0c0.393781,0 0.428023,-0.318877 0.428023,-0.713371c0,-0.394494 -0.034242,-0.713371 -0.428023,-0.713371z"/>
 </g>
</svg>